<mxfile host="app.diagrams.net" modified="2023-09-08T05:28:21.525Z" agent="Mozilla/5.0 (Windows NT 10.0; Win64; x64) AppleWebKit/537.36 (KHTML, like Gecko) Chrome/116.0.0.0 Safari/537.36" version="21.7.2" etag="jIu7zgDJvBGQRHkxHO4Q" type="github">
  <diagram name="Страница — 1" id="0JkVb1EzyXIKiP_3Bz_9">
    <mxGraphModel>
      <root>
        <mxCell id="0" />
        <mxCell id="1" parent="0" />
      </root>
    </mxGraphModel>
  </diagram>
</mxfile>
